# xmcd CD database file
#
# Track frame offsets:
#	150
#	24891
#	48036
#	71408
#	95584
#	119283
#	147569
#	168644
#	182532
#	208384
#	230453
#	267920
#	281326
#
# Disc length: 3996 seconds
#
# Revision: 0
# Processed by: cddbd v1.5.2PL0 Copyright (c) Steve Scherf et al.
# Submitted via: CDex 2.12
#
DISCID=b80f9a0d
DTITLE=Maria Pia De Vito - Danilo Rea - Enzo Pietropaoli - So Right
DYEAR=2007
DGENRE=Jazz
TTITLE0=Amelia
TTITLE1=Big Yellow Taxi
TTITLE2=Little Blue Birds
TTITLE3=So Right
TTITLE4=God Must Be A Boogie Man
TTITLE5=River
TTITLE6=Harlem in Havana
TTITLE7=Since Your Love Died
TTITLE8=Woodstock
TTITLE9=Miskin
TTITLE10=A Case Of You
TTITLE11=Sweetest Medicine
TTITLE12=The One-Eyed Man
EXTD=YEAR: 2007
EXTT0=
EXTT1=
EXTT2=
EXTT3=
EXTT4=
EXTT5=
EXTT6=
EXTT7=
EXTT8=
EXTT9=
EXTT10=
EXTT11=
EXTT12=
PLAYORDER=
